# xmcd
#
# Track frame offsets:
#	150
#	22975
#	39025
#	61375
#	85843
#	106395
#	131133
#	148000
#	181020
#	200788
#
# Disc length: 2988 seconds
#
# Revision: 1
# Processed by: cddbd v1.4PL0 Copyright (c) Steve Scherf et al.
# Submitted via: EasyCDDAExtractor 5.0.7
#
DISCID=830baa0a
DTITLE=Various Artist - Co Be Ngay Xua
DYEAR=1900
DGENRE=
TTITLE0=Elvis Phuong - Co hang ca phe
TTITLE1=Le Hang - Co be ngay xua
TTITLE2=Tuan Anh - Co bac ky nho nho
TTITLE3=Kieu Nga - Hoa hoc tro
TTITLE4=Elvis Phuong - Hoa su nha nang
TTITLE5=Elvis Phuong - Co hang nuoc
TTITLE6=Le Hang - Mong vien du
TTITLE7=Tuan Anh - Co lang gieng
TTITLE8=Kieu Nga - Truc dao
TTITLE9=Tuan Anh - Co hang xom
EXTD=
EXTT0=
EXTT1=
EXTT2=
EXTT3=
EXTT4=
EXTT5=
EXTT6=
EXTT7=
EXTT8=
EXTT9=
PLAYORDER=
